HIERARCHY
ROOT Hips
{
 OFFSET 0.000000 0.000000 0.000000
 CHANNELS 6 Xposition Yposition Zposition Yrotation Xrotation Zrotation
 JOINT Chest
 {
  OFFSET 0.000000 9.585900 0.002600
  CHANNELS 3 Yrotation Xrotation Zrotation
  JOINT Chest2
  {
   OFFSET 0.000000 9.601200 -0.005300
   CHANNELS 3 Yrotation Xrotation Zrotation
   JOINT Chest3
   {
    OFFSET 0.000000 9.561800 0.000000
    CHANNELS 3 Yrotation Xrotation Zrotation
    JOINT Chest4
    {
     OFFSET 0.000000 9.552100 0.000000
     CHANNELS 3 Yrotation Xrotation Zrotation
     JOINT Neck
     {
      OFFSET 0.000000 14.453000 0.000000
      CHANNELS 3 Yrotation Xrotation Zrotation
      JOINT Head
      {
       OFFSET 0.000000 8.936500 -0.011300
       CHANNELS 3 Yrotation Xrotation Zrotation
       End Site
       {
        OFFSET 0.000000 17.073600 -0.006000
       }
      }
     }
     JOINT RightCollar
     {
      OFFSET -2.921100 9.558500 0.000000
      CHANNELS 3 Yrotation Xrotation Zrotation
      JOINT RightShoulder
      {
       OFFSET -13.519700 0.000000 0.000000
       CHANNELS 3 Yrotation Xrotation Zrotation
       JOINT RightElbow
       {
        OFFSET 0.000000 -29.696600 0.000000
        CHANNELS 3 Yrotation Xrotation Zrotation
        JOINT RightWrist
        {
         OFFSET 0.000000 -24.004700 0.000000
         CHANNELS 3 Yrotation Xrotation Zrotation
         End Site
         {
          OFFSET 0.000000 -17.728500 0.000000
         }
        }
       }
      }
     }
     JOINT LeftCollar
     {
      OFFSET 2.921100 9.558500 0.000000
      CHANNELS 3 Yrotation Xrotation Zrotation
      JOINT LeftShoulder
      {
       OFFSET 13.519700 0.000000 0.000000
       CHANNELS 3 Yrotation Xrotation Zrotation
       JOINT LeftElbow
       {
        OFFSET 0.000000 -29.696600 0.000000
        CHANNELS 3 Yrotation Xrotation Zrotation
        JOINT LeftWrist
        {
         OFFSET 0.000000 -24.004700 0.000000
         CHANNELS 3 Yrotation Xrotation Zrotation
         End Site
         {
          OFFSET 0.000000 -17.728500 0.000000
         }
        }
       }
      }
     }
    }
   }
  }
 }
 JOINT RightHip
 {
  OFFSET -7.771700 -0.012900 -0.001300
  CHANNELS 3 Yrotation Xrotation Zrotation
  JOINT RightKnee
  {
   OFFSET 0.000000 -40.869800 0.001200
   CHANNELS 3 Yrotation Xrotation Zrotation
   JOINT RightAnkle
   {
    OFFSET 0.000000 -39.717900 0.002100
    CHANNELS 3 Yrotation Xrotation Zrotation
    JOINT RightToe
    {
     OFFSET 0.000000 -4.965400 11.033500
     CHANNELS 3 Yrotation Xrotation Zrotation
     End Site
     {
      OFFSET 0.000000 -1.423100 5.872300
     }
    }
   }
  }
 }
 JOINT LeftHip
 {
  OFFSET 7.771700 -0.012900 -0.001300
  CHANNELS 3 Yrotation Xrotation Zrotation
  JOINT LeftKnee
  {
   OFFSET 0.000000 -40.869800 0.001200
   CHANNELS 3 Yrotation Xrotation Zrotation
   JOINT LeftAnkle
   {
    OFFSET 0.000000 -39.717900 0.002100
    CHANNELS 3 Yrotation Xrotation Zrotation
    JOINT LeftToe
    {
     OFFSET 0.000000 -4.965400 11.033500
     CHANNELS 3 Yrotation Xrotation Zrotation
     End Site
     {
      OFFSET 0.000000 -1.423100 5.872300
     }
    }
   }
  }
 }
}
MOTION
Frames: 6
Frame Time: 0.008333
-7.120127 50.965467 27.879373 177.040562 -32.909415 -9.137730 0.511912 13.634442 3.586181 0.191980 7.784294 2.054821 0.289559 9.722746 2.571604 0.197611 7.762605 2.024988 4.304579 19.505653 -0.689088 4.768229 -4.890344 -1.667074 0.587642 0.838249 -2.765028 -10.664853 -6.191603 6.133133 102.972886 -79.927208 -85.885101 12.743043 -12.671357 -21.399639 -9.757016 3.002661 -2.914640 5.248910 0.026759 -0.726565 -103.546591 -63.470742 115.547491 12.528061 -19.045630 -4.429152 -12.128523 -33.136029 5.308092 18.525377 83.791765 14.487626 -1.896837 -10.042872 -3.819554 -0.120619 -3.745359 2.981737 -13.435906 -46.757103 14.364870 173.924422 76.854243 170.017412 -0.461028 -19.780172 -0.010671 -0.009631 0.044448 0.011439
-7.110518 50.953395 27.892242 177.019657 -32.908139 -9.146159 0.517259 13.639872 3.609531 0.188269 7.791604 2.062635 0.285565 9.739113 2.593134 0.202500 7.759306 2.018456 4.305014 19.538073 -0.683510 4.770497 -4.898379 -1.690962 0.596703 0.821284 -2.780115 -10.713294 -6.199145 6.167754 102.759782 -80.001707 -85.666228 12.743458 -12.677268 -21.386217 -9.749767 3.030449 -2.878374 5.257044 0.000198 -0.753429 -103.569054 -63.519485 115.576918 12.533505 -19.075762 -4.470501 -12.005404 -33.006716 5.147344 19.194602 83.779040 15.221400 -1.811584 -9.986832 -3.645880 -0.159373 -4.568637 3.514588 -13.446663 -46.767487 14.419669 173.941741 76.852824 170.034732 -0.481681 -19.770743 -0.007471 -0.006925 0.042778 0.010196
-7.100660 50.938418 27.909115 176.922288 -32.887617 -9.114472 0.559383 13.631788 3.638983 0.220455 7.774216 2.050015 0.278959 9.753418 2.613109 0.206590 7.769544 2.031136 4.305349 19.568978 -0.680042 4.779426 -4.835328 -1.677639 0.590617 0.810181 -2.767564 -10.731462 -6.215642 6.167339 102.554974 -80.062197 -85.475254 12.748987 -12.674538 -21.387519 -9.747508 3.026239 -2.877361 5.265519 -0.000783 -0.747528 -103.587834 -63.566251 115.599411 12.515647 -19.085217 -4.475366 -11.829984 -32.873096 4.996110 19.355720 83.736134 15.429702 -1.698243 -10.191815 -3.115156 -0.170895 -4.995715 3.569377 -13.408319 -46.801566 14.474098 173.854693 76.853305 169.957967 -0.505170 -19.764076 -0.010969 -0.005789 0.047006 0.002006
-7.091521 50.923816 27.924495 176.860993 -32.870565 -9.096889 0.579120 13.627762 3.660861 0.224364 7.777430 2.058640 0.297558 9.738802 2.595629 0.198872 7.810484 2.101398 4.300325 19.588506 -0.717570 4.795120 -4.773445 -1.671655 0.590719 0.779649 -2.796484 -10.729878 -6.227109 6.166122 102.402254 -80.066446 -85.348685 12.740422 -12.655050 -21.408983 -9.741242 2.995892 -2.910355 5.271372 -0.007946 -0.756766 -103.393688 -63.610857 115.433312 12.540713 -19.176200 -4.500948 -11.690426 -32.690049 4.833609 19.175490 83.669402 15.278799 -1.609562 -10.651071 -2.222057 -0.153877 -5.077049 3.174885 -13.389294 -46.830245 14.513875 173.788524 76.852786 169.903689 -0.519201 -19.758599 -0.019628 -0.005799 0.050928 -0.002230
-7.081991 50.908656 27.940257 176.798158 -32.849124 -9.080378 0.600722 13.620688 3.681865 0.205786 7.800418 2.086950 0.326174 9.721247 2.581997 0.203699 7.815935 2.121977 4.319308 19.660787 -0.695139 4.780608 -4.817035 -1.730986 0.592243 0.758371 -2.832223 -10.727599 -6.217984 6.200450 102.276754 -80.031908 -85.260966 12.747493 -12.632547 -21.439793 -9.741253 2.978747 -2.931850 5.274906 -0.020062 -0.777811 -103.221876 -63.619591 115.280985 12.512632 -19.181688 -4.524032 -11.583155 -32.508409 4.665930 18.890107 83.608618 15.029678 -1.516138 -11.219973 -1.214976 -0.108850 -4.685940 2.408590 -13.373792 -46.864601 14.558249 173.698003 76.849940 169.827375 -0.538744 -19.751098 -0.032770 0.000581 0.048543 -0.002528
-7.072394 50.893287 27.955747 176.739793 -32.826046 -9.065146 0.609723 13.619300 3.701927 0.220475 7.795437 2.093510 0.321282 9.742549 2.627810 0.218780 7.785786 2.070764 4.342646 19.713920 -0.659923 4.793368 -4.770329 -1.736293 0.588878 0.767027 -2.797923 -10.715504 -6.220593 6.204905 102.198100 -79.966241 -85.223990 12.765972 -12.611720 -21.473399 -9.741531 2.971204 -2.943274 5.279477 0.006000 -0.749125 -103.144025 -63.640554 115.224794 12.466610 -19.153644 -4.543456 -11.515130 -32.339260 4.486569 18.302827 83.582860 14.493583 -1.336658 -11.839641 -0.276318 -0.055451 -3.701007 1.372356 -13.373762 -46.903272 14.611117 173.610057 76.842305 169.746494 -0.557563 -19.737387 -0.046683 0.001918 0.045000 -0.003160
